<svg xmlns='http://www.w3.org/2000/svg' width='100%' height='100%' viewBox='0 0 800 400'>
    <rect fill='#0953AA' width='800' height='400'/>
    <path fill='#24aab5' d="M 435 145.1563 L 431.7188 148.75 C 424.375 156.8359 418.3203 160.4492 413.2813 162.8125 C 408.2422 165.1758 404.0039 165.8789 399.8438 169.0625 C 395.4102 172.4609 388.9648 178.9844 386.25 190.625 C 380.4297 191.8945 376.1719 194.1211 372.8125 197.0313 C 369.4922 199.9023 366.9922 203.1641 363.9063 206.7188 C 363.8867 206.7578 363.9258 206.8359 363.9063 206.875 C 359.4922 211.9531 355.625 217.4219 348.125 220.3125 L 345 221.5625 L 345 275 L 440.3125 275 C 445.7813 274.707 449.5703 270.918 451.875 267.1875 C 454.1797 263.457 455.4492 259.4141 456.0938 256.0938 C 457.7539 247.6367 460.7813 223.2813 460.7813 223.2813 L 460.9375 222.8125 L 460.9375 222.3438 C 460.7813 218.9648 459.3945 216.0938 457.6563 213.4375 L 463.2813 196.7188 L 472.1875 183.2813 L 474.6875 179.6875 L 471.4063 176.7188 L 438.5938 148.2813 Z M 435.3125 158.9063 L 461.4063 181.5625 L 454.5313 191.7188 L 454.0625 192.1875 L 453.9063 192.9688 L 449.375 206.4063 C 447.0117 205.4297 444.5703 204.7461 441.875 204.8438 L 441.5625 204.8438 L 410 205 L 405 205 L 405 224.375 C 404.2969 229.8242 401.2695 231.9336 397.5 233.4375 C 396.25 233.9453 396.0938 233.6719 395 233.9063 L 395 204.8438 C 394.1797 186.3086 400.7813 180.9766 405.9375 177.0313 C 407.3633 175.9375 411.543 174.668 417.5 171.875 C 422.4805 169.5313 428.6719 165.332 435.3125 158.9063 Z M 385.3125 201.875 C 385.293 203.0078 384.9414 203.8086 385 205 C 385 205.0586 385 205.0977 385 205.1563 L 385 245 L 390 245 C 390 245 395.3516 244.9414 401.0938 242.6563 C 406.8359 240.3711 413.7695 235.0195 415 225.625 L 415 215 L 441.875 214.8438 L 442.0313 214.8438 C 446.6406 214.5898 450.4688 218.0859 450.7813 222.6563 C 450.7617 222.7344 450.5273 224.5898 450.4688 225 L 430 225 L 430 235 L 449.2188 235 C 448.6914 238.8672 448.2031 241.2891 447.6563 245 L 430 245 L 430 255 L 446.0938 255 C 445.5664 257.2266 444.5117 259.8828 443.2813 261.875 C 441.9141 264.1016 440.7422 264.9414 439.6875 265 L 355 265 L 355 227.6563 C 363.1055 223.3594 368.1445 217.168 371.4063 213.4375 C 374.7852 209.5703 377.1094 206.6406 379.375 204.6875 C 380.8594 203.418 383.1836 202.6953 385.3125 201.875 Z"/>
</svg>