<svg xmlns="http://www.w3.org/2000/svg" style="display: none;">
  <symbol id="warning" viewBox="0 0 16 16" fill="currentColor">
    <path d="M16 8A8 8 0 1 1 0 8a8 8 0 0 1 16 0M8 4a.905.905 0 0 0-.9.995l.35 3.507a.552.552 0 0 0 1.1 0l.35-3.507A.905.905 0 0 0 8 4m.002 6a1 1 0 1 0 0 2 1 1 0 0 0 0-2" />
  </symbol>
  <symbol id="lock" viewBox="0 0 16 16" fill="currentColor">
    <path d="M8 1a2 2 0 0 1 2 2v4H6V3a2 2 0 0 1 2-2m3 6V3a3 3 0 0 0-6 0v4a2 2 0 0 0-2 2v5a2 2 0 0 0 2 2h6a2 2 0 0 0 2-2V9a2 2 0 0 0-2-2"/>
  </symbol>
</svg>