<svg version="1.0"
    xmlns="http://www.w3.org/2000/svg" width="390.000000pt" height="499.000000pt" viewBox="0 0 390.000000 499.000000" preserveAspectRatio="xMidYMid meet">

    <g transform="translate(0, 500) scale(0.1,-0.1)" fill="#fff" stroke="none">
        <path d="M0 4910 l0 -70 1950 0 1950 0 0 70 0 70 -1950 0 -1950 0 0 -70z"/>
        <path d="M0 3101 l0 -1629 971 -726 c534 -400 974 -727 979 -729 5 -1 446 324
979 723 l970 725 1 1633 0 1632 -1950 0 -1950 0 0 -1629z m2089 1274 c27 -72
44 -204 36 -284 -15 -155 -73 -323 -139 -406 l-23 -29 -21 40 c-34 68 -55 155
-55 234 0 89 10 124 73 251 55 109 80 185 80 243 1 38 2 40 15 22 8 -11 24
-43 34 -71z m-327 -202 c66 -68 78 -109 78 -269 0 -146 18 -253 55 -324 9 -18
14 -34 12 -36 -2 -3 -30 5 -62 17 -74 28 -158 107 -174 164 -18 64 -13 127 16
211 22 65 27 96 26 177 0 53 3 97 6 97 4 0 23 -17 43 -37z m447 -348 c1 -75
-12 -121 -44 -165 -34 -46 -101 -90 -137 -90 l-30 0 46 51 c55 61 103 158 118
237 16 87 19 91 34 57 7 -16 13 -57 13 -90z m-679 -265 c119 -15 248 -52 340
-97 l85 -41 90 44 c291 143 717 137 1010 -15 l70 -36 -97 -3 c-87 -2 -107 1
-180 27 -121 42 -217 55 -366 48 -125 -6 -238 -29 -303 -62 -43 -23 -402 -21
-455 2 -90 38 -180 55 -315 60 -150 6 -248 -8 -366 -53 -53 -19 -84 -24 -162
-24 l-96 0 25 20 c60 47 255 111 392 129 88 12 239 12 328 1z m1590 -240 l0
-40 -1165 0 -1165 0 0 40 0 40 1165 0 1165 0 0 -40z m285 -1018 c129 -310 248
-585 265 -612 32 -50 94 -90 138 -90 15 0 22 -6 22 -20 0 -19 -7 -20 -255 -20
-243 0 -255 1 -255 19 0 14 10 20 44 25 27 4 52 16 66 31 29 31 25 53 -42 223
l-53 132 -243 -2 -244 -3 -54 -128 c-69 -167 -73 -188 -41 -221 17 -17 41 -27
76 -32 41 -5 51 -10 51 -25 0 -18 -11 -19 -205 -19 -194 0 -205 1 -205 19 0
14 11 22 44 30 57 14 98 61 146 166 20 44 133 308 251 588 199 472 216 507
237 505 20 -3 49 -66 257 -566z m-2795 518 c0 -17 -7 -20 -47 -20 -65 0 -109
-28 -122 -77 -14 -51 -14 -717 0 -820 24 -173 102 -261 252 -282 130 -18 261
18 346 95 96 86 103 131 99 631 l-3 393 -27 27 c-22 22 -39 27 -88 31 -50 4
-60 7 -60 23 0 18 12 19 230 19 218 0 230 -1 230 -19 0 -15 -10 -19 -56 -23
-46 -4 -61 -10 -87 -37 l-32 -31 -6 -403 c-4 -261 -10 -423 -18 -462 -19 -89
-55 -156 -114 -213 -98 -92 -188 -122 -367 -122 -179 0 -277 30 -366 112 -51
47 -85 103 -109 178 -16 47 -19 113 -24 480 -5 326 -9 430 -19 448 -17 30 -69
52 -122 52 -33 0 -40 3 -40 20 0 20 7 20 275 20 268 0 275 0 275 -20z m1950
-62 c0 -46 3 -113 7 -150 6 -68 6 -68 -19 -68 -22 0 -26 5 -31 40 -8 64 -50
125 -102 150 -37 18 -70 23 -171 28 l-125 5 3 -544 c2 -430 6 -549 16 -567 17
-30 69 -52 122 -52 33 0 40 -3 40 -20 0 -20 -7 -20 -275 -20 -262 0 -275 1
-275 19 0 16 10 19 60 23 49 4 66 9 88 31 l27 27 3 552 2 551 -124 -6 c-88 -4
-136 -11 -162 -23 -45 -22 -91 -90 -100 -150 -5 -37 -10 -44 -29 -44 -21 0
-22 3 -18 78 2 42 6 110 9 150 l6 72 524 0 524 0 0 -82z"/>
        <path d="M3023 2392 c-39 -92 -87 -204 -107 -249 l-35 -83 213 0 214 0 -99
236 c-54 130 -102 242 -107 250 -5 9 -32 -42 -79 -154z"/>
    </g>
</svg>
